<svg width="368" height="69" viewBox="0 0 368 69" fill="none" xmlns="http://www.w3.org/2000/svg">
<path d="M39.5121 0C20.1443 0 2.56285 15.4422 0.252231 34.4862C-2.05839 53.5302 11.764 68.9724 31.1387 68.9724C50.5135 68.9724 68.088 53.5302 70.3986 34.4862C72.7092 15.4422 58.88 0 39.5121 0ZM52.024 34.4862C50.8859 43.9185 43.216 51.5706 33.6907 51.5706C24.1655 51.5706 17.3715 43.9254 18.5096 34.4862C19.6477 25.0539 28.297 17.4018 37.8223 17.4018C47.3476 17.4018 53.169 25.047 52.0309 34.4862H52.024ZM203.428 3.2706C203.29 2.2701 202.442 1.5249 201.435 1.5249H178.481C177.336 1.5249 176.28 2.1528 175.729 3.1602L141.269 66.7782C141.069 67.1508 141.338 67.6062 141.759 67.6062H157.844C158.995 67.6062 160.058 66.9714 160.603 65.9571L186.647 17.4018H187.461L190.385 41.1516C190.427 41.4828 190.165 41.7795 189.834 41.7795H180.529C178.053 41.7795 176.908 44.8569 178.784 46.4784L189.22 55.4898C191.337 57.3183 192.703 59.8713 193.048 62.652L193.441 65.8398C193.565 66.8472 194.42 67.6062 195.434 67.6062H211.491C211.829 67.6062 212.092 67.3095 212.043 66.9714L203.442 3.2637L203.428 3.2706ZM140.814 49.6248L129.323 43.4907C127.875 42.7179 126.088 43.0767 125.047 44.3463C124.419 45.1122 123.743 45.9057 123.253 46.3818C119.853 49.7145 115.839 51.5982 110.721 51.5982C100.871 51.5982 95.3051 44.16 95.3051 36.4734C95.3051 26.7099 104.113 17.4363 114.721 17.4363C119.811 17.4363 124.04 19.665 126.792 23.0598C127.785 24.288 129.523 24.6192 130.937 23.9223C134.434 22.1973 143.814 17.5467 144.159 17.3742C144.449 17.2293 144.559 16.8843 144.421 16.5945C144.263 16.2771 144.083 15.9252 144.063 15.8838C139.007 6.5481 128.84 0.0345 116.432 0.0345C94.9257 0.0345 76.9166 18.3471 76.9166 38.709C76.9166 55.7796 90.1251 69 108.051 69C121.239 69 133.303 61.7757 140.552 51.1704C140.662 51.0117 140.855 50.7081 141.028 50.4459C141.207 50.163 141.111 49.7904 140.814 49.6317V49.6248Z" fill="white"/>
<path d="M246.061 1.53869C247.496 1.53869 248.848 1.81469 250.117 2.37359C251.386 2.92559 252.496 3.67769 253.441 4.62989C254.386 5.58209 255.138 6.68609 255.697 7.95569C256.249 9.22529 256.531 10.5777 256.531 12.0129C256.531 13.4481 256.255 14.8005 255.697 16.0839C255.145 17.3673 254.393 18.4713 253.441 19.4097C252.496 20.3481 251.386 21.1002 250.117 21.666C248.848 22.2318 247.496 22.5078 246.061 22.5078H238.971V34.569H234.694C234.315 34.569 234.005 34.2585 234.005 33.879V2.22869C234.005 1.84919 234.315 1.53869 234.694 1.53869H246.061ZM246.061 17.7951C246.792 17.7951 247.489 17.6433 248.144 17.3466C248.799 17.0499 249.386 16.6359 249.896 16.1046C250.407 15.5733 250.813 14.9592 251.11 14.2623C251.407 13.5654 251.558 12.8133 251.558 12.006C251.558 11.1987 251.407 10.5018 251.11 9.80489C250.813 9.10799 250.407 8.49389 249.896 7.97639C249.386 7.45889 248.799 7.03799 248.144 6.72059C247.489 6.40319 246.792 6.24449 246.061 6.24449H238.971V17.7951H246.061Z" fill="white"/>
<path d="M265.491 26.7099C265.491 27.7518 265.843 28.6212 266.539 29.325C267.236 30.0219 268.119 30.3738 269.174 30.3738C269.347 30.3738 269.526 30.3669 269.726 30.3462C269.919 30.3324 270.105 30.3048 270.278 30.2703C270.45 30.2358 270.602 30.1875 270.74 30.1185V34.3206C270.533 34.4241 270.299 34.5069 270.023 34.5759C269.492 34.7484 268.864 34.8312 268.126 34.8312C267.084 34.8312 266.119 34.638 265.222 34.2585C264.325 33.879 263.546 33.3339 262.877 32.6301C262.215 31.9332 261.698 31.0845 261.325 30.0978C260.96 29.1111 260.773 27.9795 260.773 26.7168V2.22869C260.773 1.84919 261.084 1.53869 261.463 1.53869H264.794C265.174 1.53869 265.484 1.84919 265.484 2.22869V26.7099H265.491Z" fill="white"/>
<path d="M292.039 34.569L290.991 32.2161C290.529 32.7129 289.991 33.1476 289.377 33.5202C288.811 33.8652 288.108 34.1619 287.252 34.431C286.397 34.6932 285.376 34.8312 284.183 34.8312C282.61 34.8312 281.148 34.5345 279.782 33.948C278.417 33.3615 277.217 32.5335 276.189 31.464C275.154 30.3945 274.354 29.1318 273.782 27.6621C273.209 26.1924 272.926 24.564 272.926 22.77C272.926 20.976 273.209 19.3752 273.782 17.9055C274.354 16.4358 275.154 15.1731 276.189 14.1036C277.224 13.0341 278.417 12.2061 279.782 11.6058C281.148 11.0055 282.617 10.7088 284.183 10.7088C285.376 10.7088 286.404 10.8468 287.252 11.1297C288.108 11.4126 288.811 11.7024 289.377 12.0129C290.011 12.4062 290.542 12.8478 290.991 13.3446L292.039 10.9641H294.757C295.136 10.9641 295.446 11.2746 295.446 11.6541V33.879C295.446 34.2585 295.136 34.569 294.757 34.569H292.039ZM277.63 22.7631C277.63 23.8878 277.817 24.9159 278.182 25.8336C278.548 26.7582 279.051 27.5586 279.679 28.2417C280.314 28.9248 281.038 29.4492 281.852 29.8149C282.672 30.1806 283.535 30.3669 284.438 30.3669C285.342 30.3669 286.211 30.1806 287.039 29.8149C287.866 29.4492 288.59 28.9248 289.211 28.2417C289.832 27.5586 290.329 26.7582 290.694 25.8336C291.06 24.909 291.246 23.8878 291.246 22.7631C291.246 21.6384 291.06 20.6103 290.694 19.6926C290.329 18.768 289.832 17.9676 289.211 17.2845C288.59 16.6014 287.866 16.077 287.039 15.7113C286.211 15.3456 285.342 15.1593 284.438 15.1593C283.535 15.1593 282.672 15.3456 281.852 15.7113C281.031 16.077 280.307 16.6014 279.679 17.2845C279.044 17.9676 278.548 18.768 278.182 19.6926C277.817 20.6172 277.63 21.6384 277.63 22.7631Z" fill="white"/>
<path d="M311.593 10.7088C312.89 10.7088 314.118 10.9641 315.27 11.4747C316.421 11.9853 317.421 12.6891 318.277 13.5723C319.132 14.4624 319.801 15.5319 320.298 16.7877C320.794 18.0435 321.043 19.4304 321.043 20.9484V33.879C321.043 34.2585 320.732 34.569 320.353 34.569H316.332V20.9484C316.332 20.1825 316.18 19.4442 315.883 18.7473C315.587 18.0504 315.18 17.4363 314.669 16.905C314.166 16.3806 313.58 15.9666 312.924 15.6492C312.269 15.3318 311.579 15.1731 310.862 15.1662C310.041 15.1593 309.269 15.318 308.551 15.6423C307.855 15.9597 307.241 16.3806 306.724 16.9119C306.206 17.4432 305.793 18.0504 305.496 18.7404C305.199 19.4304 305.048 20.1687 305.048 20.9553V34.5759H301.026C300.647 34.5759 300.337 34.2654 300.337 33.8859V11.6541C300.337 11.2746 300.647 10.9641 301.026 10.9641H303.744L304.792 13.3446C305.254 12.8478 305.792 12.4062 306.406 12.0129C306.972 11.7024 307.675 11.4126 308.531 11.1297C309.386 10.8468 310.407 10.7088 311.6 10.7088H311.593Z" fill="white"/>
<path d="M345.549 27.7587C346.066 27.7587 346.397 28.3038 346.17 28.7661C345.866 29.3664 345.521 29.946 345.135 30.5049C344.535 31.3605 343.818 32.1126 342.983 32.7612C342.149 33.4098 341.176 33.9204 340.079 34.2861C338.983 34.6518 337.748 34.8381 336.382 34.8381C334.81 34.8381 333.348 34.5414 331.982 33.9549C330.616 33.3684 329.423 32.5404 328.395 31.4709C327.374 30.4014 326.567 29.1387 325.988 27.669C325.409 26.1993 325.119 24.5709 325.119 22.7769C325.119 20.9829 325.409 19.3821 325.988 17.9124C326.567 16.4427 327.354 15.18 328.34 14.1105C329.326 13.041 330.499 12.213 331.844 11.6127C333.189 11.0124 334.617 10.7157 336.12 10.7157C337.624 10.7157 339.045 11.0124 340.397 11.6127C341.742 12.213 342.914 13.041 343.901 14.1105C344.887 15.18 345.673 16.4427 346.253 17.9124C346.839 19.3959 347.129 21.0381 347.122 22.839C347.122 23.0874 347.101 23.3427 347.073 23.5911C347.039 23.8533 347.004 24.081 346.97 24.2673C346.935 24.5088 346.901 24.7089 346.866 24.8814H330.078C330.147 25.6128 330.361 26.3166 330.72 26.979C331.078 27.6414 331.527 28.2279 332.065 28.7316C332.603 29.2353 333.244 29.6355 333.996 29.9322C334.748 30.2289 335.541 30.3807 336.375 30.3807C337.81 30.3807 338.948 30.0702 339.79 29.4561C340.631 28.842 341.245 28.2762 341.617 27.7656H345.535L345.549 27.7587ZM336.127 15.1593C334.555 15.1593 333.23 15.6906 332.147 16.7601C331.065 17.8296 330.375 19.2234 330.085 20.9484H342.68C342.404 19.2441 341.714 17.8503 340.597 16.7739C339.479 15.6975 337.989 15.1593 336.127 15.1593Z" fill="white"/>
<path d="M354.578 26.9652C354.888 26.9652 355.171 27.1791 355.24 27.4827C355.426 28.2831 355.799 28.9386 356.35 29.4492C357.013 30.0633 358.013 30.3738 359.344 30.3738C360.813 30.3738 361.875 30.0978 362.544 29.5389C363.206 28.9869 363.544 28.3038 363.544 27.5034C363.544 26.8065 363.227 26.2683 362.599 25.9026C361.965 25.5369 361.185 25.2264 360.254 24.978C359.323 24.7296 358.316 24.4743 357.233 24.2121C356.15 23.9499 355.15 23.5704 354.226 23.0874C353.302 22.6044 352.529 21.9489 351.895 21.1278C351.26 20.3067 350.95 19.1958 350.95 17.802C350.95 16.8291 351.143 15.9114 351.522 15.0489C351.908 14.1864 352.446 13.4343 353.15 12.7857C353.847 12.1371 354.702 11.6265 355.695 11.2608C356.695 10.8951 357.826 10.7088 359.089 10.7088C361.854 10.7088 363.944 11.3712 365.372 12.7029C366.621 13.869 367.379 15.387 367.655 17.25C367.717 17.6709 367.4 18.0573 366.972 18.0573H363.544C363.255 18.0573 362.986 17.8779 362.896 17.595C362.703 16.9878 362.351 16.4565 361.827 16.008C361.179 15.4422 360.268 15.1662 359.089 15.1662C357.909 15.1662 356.978 15.4422 356.35 15.9873C355.716 16.5324 355.405 17.1396 355.405 17.802C355.405 18.4989 355.723 19.0371 356.35 19.4028C356.985 19.7685 357.764 20.0721 358.695 20.3136C359.627 20.5551 360.627 20.8035 361.703 21.0657C362.779 21.3279 363.779 21.7074 364.71 22.1904C365.641 22.6803 366.421 23.3358 367.055 24.1638C367.69 24.9918 368 26.1027 368 27.5034C368 29.601 367.248 31.3467 365.745 32.7405C364.241 34.1343 362.11 34.8243 359.344 34.8243C356.44 34.8243 354.267 34.1412 352.819 32.775C351.522 31.5537 350.75 29.8839 350.508 27.7518C350.46 27.3378 350.77 26.9652 351.191 26.9652H354.578Z" fill="white"/>
</svg>
